<?xml version="1.0" encoding="utf-8"?>
<!-- Generator: Adobe Illustrator 22.1.0, SVG Export Plug-In . SVG Version: 6.00 Build 0)  -->
<svg version="1.1" id="Layer_1" xmlns="http://www.w3.org/2000/svg" xmlns:xlink="http://www.w3.org/1999/xlink" x="0px" y="0px"
	 width="21.9px" height="32.2px" viewBox="0 0 21.9 32.2" style="enable-background:new 0 0 21.9 32.2;" xml:space="preserve">
<style type="text/css">
	
		.st0{fill:none;stroke:#FFFFFF;stroke-width:0.25;stroke-linecap:square;stroke-linejoin:round;stroke-miterlimit:10;stroke-dasharray:1;}
</style>
<g>
	<path class="st0" d="M14.7,28.6c1.5,1.6,3.6,2.6,5.9,2.7c0.2,0,0.4,0,0.6,0v-3.8c-3.6,0-3.8-2.9-3.8-5v-0.1v-5.2h3.8l0,0v-3.8h-3.9
		V0.9h-0.7h-7c-4.5,0-8.2,3.7-8.2,8.2c0,2.5,1.1,4.7,2.9,6.2c-2.2,1.6-3.6,4.2-3.6,7.1c0,4.9,4,8.9,8.9,8.9l0,0l0,0l0,0l0,0
		c0.2,0,0.4,0,0.6,0c2.3-0.1,4.4-1.2,5.9-2.7 M13.4,13.6H9.6c-2.4,0-4.4-2-4.4-4.4s2-4.4,4.4-4.4h3.8V13.6z M13.4,17.4L13.4,17.4
		h-2.7H13.4z M4.5,22.5c0-2.8,2.3-5.1,5.1-5.1h3.8v5.2c0,2.1-0.3,5-3.8,5C6.8,27.6,4.5,25.3,4.5,22.5z"/>
</g>
</svg>
